<svg width="16" height="16" viewBox="0 0 16 16" fill="none" xmlns="http://www.w3.org/2000/svg">
<path fill-rule="evenodd" clip-rule="evenodd" d="M4.10407 2.91327C3.77521 2.58441 3.24201 2.58441 2.91315 2.91327C2.58429 3.24214 2.58429 3.77533 2.91315 4.10419L6.80892 7.99996L2.91315 11.8957C2.58429 12.2246 2.58429 12.7578 2.91315 13.0866C3.24201 13.4155 3.77521 13.4155 4.10407 13.0866L7.99984 9.19088L11.8956 13.0866C12.2245 13.4155 12.7577 13.4155 13.0865 13.0866C13.4154 12.7578 13.4154 12.2246 13.0865 11.8957L9.19075 7.99996L13.0865 4.10419C13.4154 3.77533 13.4154 3.24214 13.0865 2.91327C12.7577 2.58441 12.2245 2.58441 11.8956 2.91327L7.99984 6.80904L4.10407 2.91327Z" fill="#8C8A97"/>
</svg>
