<svg width="24" height="24" viewBox="0 0 24 24" fill="none" xmlns="http://www.w3.org/2000/svg">
<path fill-rule="evenodd" clip-rule="evenodd" d="M10.9808 0.923077C10.9808 0.413276 11.3972 0 11.9108 0C18.588 0 24 5.37204 24 12C24 18.628 18.588 24 11.9108 24C11.3972 24 10.9808 23.5867 10.9808 23.0769C10.9808 22.5671 11.3972 22.1538 11.9108 22.1538C17.5608 22.1538 22.1401 17.6084 22.1401 12C22.1401 6.39165 17.5608 1.84615 11.9108 1.84615C11.3972 1.84615 10.9808 1.43288 10.9808 0.923077ZM4.02803 19.8891C4.35818 19.4986 4.94475 19.4477 5.33816 19.7754C6.24005 20.5267 7.28077 21.1207 8.41651 21.5315C8.89905 21.7061 9.14766 22.2359 8.97179 22.7149C8.79593 23.1939 8.26218 23.4406 7.77964 23.2661C6.44545 22.7834 5.21464 22.0826 4.14257 21.1896C3.74916 20.8619 3.69787 20.2796 4.02803 19.8891ZM8.41573 2.46881C8.89843 2.29467 9.14751 1.76508 8.97207 1.28595C8.79664 0.806811 8.26311 0.559566 7.78041 0.73371C6.44563 1.21526 5.21438 1.91633 4.14205 2.81092C3.74888 3.13893 3.69802 3.7212 4.02847 4.11147C4.35891 4.50174 4.94551 4.55222 5.33869 4.22422C6.24031 3.47204 7.28059 2.87834 8.41573 2.46881ZM2.71835 5.66598C3.16304 5.92104 3.31523 6.48563 3.05828 6.92704C2.47214 7.93394 2.05631 9.04909 1.84601 10.2373C1.75714 10.7394 1.27502 11.0749 0.76918 10.9867C0.263335 10.8985 -0.0746882 10.4199 0.0141829 9.9178C0.262654 8.51397 0.754442 7.19466 1.4479 6.0034C1.70486 5.56199 2.27366 5.41092 2.71835 5.66598ZM1.84601 13.7615C1.75714 13.2594 1.27502 12.9238 0.76918 13.012C0.263335 13.1003 -0.0746882 13.5788 0.0141829 14.0809C0.262654 15.4848 0.754442 16.8041 1.4479 17.9953C1.70486 18.4367 2.27366 18.5878 2.71835 18.3328C3.16304 18.0777 3.31523 17.5131 3.05828 17.0717C2.47214 16.0648 2.05631 14.9496 1.84601 13.7615Z" fill="#5D6670"/>
</svg>
